<svg width="48" height="48" viewBox="0 0 48 48" fill="none" xmlns="http://www.w3.org/2000/svg">
<g id="twitter">
<path id="Vector" d="M44.9196 12C43.3796 12.7 41.7196 13.16 39.9996 13.38C41.7596 12.32 43.1196 10.64 43.7596 8.62C42.0996 9.62 40.2596 10.32 38.3196 10.72C36.7396 9 34.5196 8 31.9996 8C27.2996 8 23.4596 11.84 23.4596 16.58C23.4596 17.26 23.5396 17.92 23.6796 18.54C16.5596 18.18 10.2196 14.76 5.99959 9.58C5.25959 10.84 4.83959 12.32 4.83959 13.88C4.83959 16.86 6.33959 19.5 8.65959 21C7.23959 21 5.91959 20.6 4.75959 20C4.75959 20 4.75959 20 4.75959 20.06C4.75959 24.22 7.71959 27.7 11.6396 28.48C10.9196 28.68 10.1596 28.78 9.37959 28.78C8.83959 28.78 8.29959 28.72 7.77959 28.62C8.85959 32 11.9996 34.52 15.7796 34.58C12.8596 36.9 9.15959 38.26 5.11959 38.26C4.43959 38.26 3.75959 38.22 3.07959 38.14C6.87959 40.58 11.3996 42 16.2396 42C31.9996 42 40.6596 28.92 40.6596 17.58C40.6596 17.2 40.6596 16.84 40.6396 16.46C42.3196 15.26 43.7596 13.74 44.9196 12Z" fill="white"/>
</g>
</svg>
